<?xml version="1.0" encoding="UTF-8"?>
<svg width="486px" height="486px" viewBox="0 0 486 486" version="1.1" xmlns="http://www.w3.org/2000/svg" xmlns:xlink="http://www.w3.org/1999/xlink">
    <!-- Generator: Sketch 54.1 (76490) - https://sketchapp.com -->
    <title>Logo Board Copy 8</title>
    <desc>Created with Sketch.</desc>
    <g id="Logo-Board-Copy-8" stroke="none" stroke-width="1" fill="none" fill-rule="evenodd">
        <rect id="Rectangle" fill="#FC4445" x="0" y="0" width="486" height="486"></rect>
        <path d="M346.137968,168.147902 L414.301732,232.845712 C419.909791,238.168615 420.140955,247.02991 414.818052,252.637968 C414.650464,252.814535 414.478298,252.9867 414.301732,253.154288 L346.137968,317.852098 C340.735659,322.979714 332.264341,322.979714 326.862032,317.852098 L258.698268,253.154288 C253.090209,247.831385 252.859045,238.97009 258.181948,233.362032 C258.349536,233.185465 258.521702,233.0133 258.698268,232.845712 L326.862032,168.147902 C332.264341,163.020286 340.735659,163.020286 346.137968,168.147902 Z" id="Polygon-Copy-8" stroke="#FC4445" stroke-width="12" fill="#97CAEF"></path>
        <path d="M253.137968,257.011719 L321.301732,321.709528 C326.909791,327.032431 327.140955,335.893726 321.818052,341.501785 C321.650464,341.678351 321.478298,341.850516 321.301732,342.018104 L253.137968,406.715914 C247.735659,411.84353 239.264341,411.84353 233.862032,406.715914 L165.698268,342.018104 C160.090209,336.695202 159.859045,327.833906 165.181948,322.225848 C165.349536,322.049282 165.521702,321.877117 165.698268,321.709528 L233.862032,257.011719 C239.264341,251.884103 247.735659,251.884103 253.137968,257.011719 Z" id="Polygon-Copy-10" stroke="#FC4445" stroke-width="12" fill="#55BCC9"></path>
        <path d="M253.137968,79.0117185 L321.301732,143.709528 C326.909791,149.032431 327.140955,157.893726 321.818052,163.501785 C321.650464,163.678351 321.478298,163.850516 321.301732,164.018104 L253.137968,228.715914 C247.735659,233.84353 239.264341,233.84353 233.862032,228.715914 L165.698268,164.018104 C160.090209,158.695202 159.859045,149.833906 165.181948,144.225848 C165.349536,144.049282 165.521702,143.877117 165.698268,143.709528 L233.862032,79.0117185 C239.264341,73.8841026 247.735659,73.8841026 253.137968,79.0117185 Z" id="Polygon-Copy-11" stroke="#FC4445" stroke-width="12" fill="#3FEEE6"></path>
        <path d="M159.137968,168.147902 L227.301732,232.845712 C232.909791,238.168615 233.140955,247.02991 227.818052,252.637968 C227.650464,252.814535 227.478298,252.9867 227.301732,253.154288 L159.137968,317.852098 C153.735659,322.979714 145.264341,322.979714 139.862032,317.852098 L71.6982678,253.154288 C66.0902093,247.831385 65.8590451,238.97009 71.1819481,233.362032 C71.3495364,233.185465 71.5217015,233.0133 71.6982678,232.845712 L139.862032,168.147902 C145.264341,163.020286 153.735659,163.020286 159.137968,168.147902 Z" id="Polygon-Copy-9" stroke="#FC4445" stroke-width="12" fill="#CAFAFE"></path>
        <path d="M255.137968,169.147902 L323.301732,233.845712 C328.909791,239.168615 329.140955,248.02991 323.818052,253.637968 C323.650464,253.814535 323.478298,253.9867 323.301732,254.154288 L255.137968,318.852098 C249.735659,323.979714 241.264341,323.979714 235.862032,318.852098 L167.698268,254.154288 C162.090209,248.831385 161.859045,239.97009 167.181948,234.362032 C167.349536,234.185465 167.521702,234.0133 167.698268,233.845712 L235.862032,169.147902 C241.264341,164.020286 249.735659,164.020286 255.137968,169.147902 Z" id="Polygon-Copy-9" stroke="#FC4445" stroke-width="12" fill="#762525"></path>
    </g>
</svg>