<?xml version="1.0" encoding="UTF-8"?>
<svg width="326px" height="326px" viewBox="0 0 326 326" version="1.1" xmlns="http://www.w3.org/2000/svg" xmlns:xlink="http://www.w3.org/1999/xlink">
    <!-- Generator: Sketch 54.1 (76490) - https://sketchapp.com -->
    <title>Logo Board Copy 10</title>
    <desc>Created with Sketch.</desc>
    <g id="Logo-Board-Copy-10" stroke="none" stroke-width="1" fill="none" fill-rule="evenodd">
        <rect id="Rectangle" fill="#FC4445" x="0" y="0" width="326" height="326"></rect>
        <path d="M235.1642,115.452592 L274.383164,152.870675 C279.977436,158.208065 280.18568,167.069929 274.848289,172.6642 C274.696912,172.822863 274.541827,172.977948 274.383164,173.129325 L235.1642,210.547408 C229.754914,215.708308 221.245086,215.708308 215.8358,210.547408 L176.616836,173.129325 C171.022564,167.791935 170.81432,158.930071 176.151711,153.3358 C176.303088,153.177137 176.458173,153.022052 176.616836,152.870675 L215.8358,115.452592 C221.245086,110.291692 229.754914,110.291692 235.1642,115.452592 Z" id="Polygon-Copy-8" stroke="#FC4445" stroke-width="12" fill="#97CAEF"></path>
        <path d="M173.118741,175.334137 L212.241853,212.327497 C217.859972,217.63978 218.1079,226.500622 212.795616,232.118741 C212.616228,232.308456 212.431568,232.493116 212.241853,232.672503 L173.118741,269.665863 C167.721607,274.769191 159.278393,274.769191 153.881259,269.665863 L114.758147,232.672503 C109.140028,227.36022 108.8921,218.499378 114.204384,212.881259 C114.383772,212.691544 114.568432,212.506884 114.758147,212.327497 L153.881259,175.334137 C159.278393,170.230809 167.721607,170.230809 173.118741,175.334137 Z" id="Polygon-Copy-10" stroke="#FC4445" stroke-width="12" fill="#55BCC9"></path>
        <path d="M173.118741,56.3341375 L212.241853,93.3274965 C217.859972,98.6397804 218.1079,107.500622 212.795616,113.118741 C212.616228,113.308456 212.431568,113.493116 212.241853,113.672503 L173.118741,150.665863 C167.721607,155.769191 159.278393,155.769191 153.881259,150.665863 L114.758147,113.672503 C109.140028,108.36022 108.8921,99.4993778 114.204384,93.8812593 C114.383772,93.691544 114.568432,93.5068842 114.758147,93.3274965 L153.881259,56.3341375 C159.278393,51.2308087 167.721607,51.2308087 173.118741,56.3341375 Z" id="Polygon-Copy-11" stroke="#FC4445" stroke-width="12" fill="#3FEEE6"></path>
        <path d="M110.095106,116.030688 L149.168025,152.8052 C154.798458,158.104431 155.06695,166.964673 149.767719,172.595106 C149.573923,172.801014 149.373933,173.001004 149.168025,173.1948 L110.095106,209.969312 C104.704406,215.042912 96.2955944,215.042912 90.9048942,209.969312 L51.8319749,173.1948 C46.2015424,167.895569 45.9330502,159.035327 51.2322808,153.404894 C51.4260768,153.198986 51.6260666,152.998996 51.8319749,152.8052 L90.9048942,116.030688 C96.2955944,110.957088 104.704406,110.957088 110.095106,116.030688 Z" id="Polygon-Copy-9" stroke="#FC4445" stroke-width="12" fill="#CAFAFE"></path>
        <path d="M174.14025,116.154187 L213.308827,153.347878 C218.91569,158.672041 219.144862,167.533388 213.820699,173.14025 C213.654516,173.315257 213.483835,173.485938 213.308827,173.652122 L174.14025,210.845813 C168.73733,215.976317 160.26267,215.976317 154.85975,210.845813 L115.691173,173.652122 C110.08431,168.327959 109.855138,159.466612 115.179301,153.85975 C115.345484,153.684743 115.516165,153.514062 115.691173,153.347878 L154.85975,116.154187 C160.26267,111.023683 168.73733,111.023683 174.14025,116.154187 Z" id="Polygon-Copy-9" stroke="#FC4445" stroke-width="12" fill="#762525"></path>
    </g>
</svg>